<svg width="21" height="17" viewBox="0 0 21 17" fill="none" xmlns="http://www.w3.org/2000/svg">
<path d="M6.92005 10.4195C5.88005 10.4195 5.03205 9.47454 5.03205 8.31854C5.03205 7.16254 5.85905 6.21654 6.92105 6.21654C7.97105 6.21654 8.83105 7.16154 8.81005 8.31854C8.81005 9.47454 7.97105 10.4195 6.92005 10.4195ZM13.894 10.4185C12.854 10.4185 12.004 9.47354 12.004 8.31754C12.004 7.16154 12.833 6.21554 13.894 6.21554C14.944 6.21554 15.804 7.16054 15.784 8.31754C15.784 9.47354 14.955 10.4185 13.894 10.4185ZM8.52505 0.894543L8.21705 0.331543L7.58305 0.437543C6.14635 0.677663 4.74805 1.10812 3.42505 1.71754L3.19705 1.82254L3.05505 2.03254C0.442048 5.88554 -0.274952 9.68054 0.0800476 13.4075L0.119048 13.8145L0.449048 14.0545C1.98615 15.1826 3.70305 16.0424 5.52705 16.5975L6.31705 16.8395L7.43005 14.1235C9.34005 14.5955 11.46 14.5955 13.369 14.1235L14.476 16.8405L15.266 16.5985C17.0916 16.0448 18.8095 15.1841 20.346 14.0535L20.673 13.8155L20.713 13.4135C21.149 9.09354 20.016 5.33054 17.755 2.02954L17.613 1.82154L17.385 1.71754C16.0625 1.11065 14.6658 0.680293 13.231 0.437543L12.613 0.334543L12.299 0.876543C12.211 1.02654 12.122 1.19654 12.036 1.36954C10.9512 1.25835 9.85787 1.25835 8.77305 1.36954C8.68805 1.19954 8.60305 1.03554 8.52505 0.894543ZM5.11505 13.1835C5.31205 13.2975 5.52005 13.4095 5.72505 13.5115L5.27605 14.6075C4.06155 14.1651 2.90933 13.5674 1.84805 12.8295C1.62305 9.69154 2.26105 6.52454 4.41205 3.25954C5.31992 2.86007 6.26615 2.55416 7.23605 2.34654C7.29605 2.47154 7.35205 2.59454 7.39805 2.70254L7.67105 3.34554L8.36305 3.24454C9.71914 3.04576 11.097 3.04576 12.453 3.24454L13.143 3.34454L13.415 2.70254C13.462 2.59054 13.517 2.46854 13.575 2.34654C14.552 2.55654 15.498 2.86654 16.403 3.26154C18.278 6.08154 19.224 9.22754 18.949 12.8285C17.8872 13.5669 16.7343 14.1649 15.519 14.6075L15.074 13.5125C15.28 13.4105 15.488 13.2985 15.687 13.1835C16.177 12.9015 16.704 12.5495 17.04 12.2135L15.76 10.9335C15.597 11.0975 15.237 11.3535 14.783 11.6155C14.339 11.8715 13.898 12.0785 13.616 12.1715C11.613 12.8345 9.18805 12.8345 7.18405 12.1715C6.90305 12.0785 6.46205 11.8715 6.01805 11.6155C5.56405 11.3545 5.20405 11.0975 5.04005 10.9335L3.76005 12.2135C4.09705 12.5495 4.62505 12.9015 5.11505 13.1835Z" fill="#E2E7E9"/>
</svg>
