<svg width="14" height="23" viewBox="0 0 14 23" fill="none" xmlns="http://www.w3.org/2000/svg">
<path fill-rule="evenodd" clip-rule="evenodd" d="M5.53411 2.50787C6.61244 1.42953 8.07498 0.82373 9.59998 0.82373H12.6C13.0142 0.82373 13.35 1.15952 13.35 1.57373V5.57373C13.35 5.98794 13.0142 6.32373 12.6 6.32373H9.59998C9.53367 6.32373 9.47008 6.35007 9.4232 6.39695C9.37631 6.44384 9.34998 6.50743 9.34998 6.57373V8.82373H12.6C12.8309 8.82373 13.049 8.93014 13.1911 9.11217C13.3333 9.29421 13.3836 9.53158 13.3276 9.75563L12.3276 13.7556C12.2441 14.0895 11.9441 14.3237 11.6 14.3237H9.34998V21.5737C9.34998 21.9879 9.01419 22.3237 8.59998 22.3237H4.59998C4.18576 22.3237 3.84998 21.9879 3.84998 21.5737V14.3237H1.59998C1.18576 14.3237 0.849976 13.9879 0.849976 13.5737V9.57373C0.849976 9.15952 1.18576 8.82373 1.59998 8.82373H3.84998V6.57373C3.84998 5.04874 4.45578 3.5862 5.53411 2.50787ZM9.59998 2.32373C8.47281 2.32373 7.3918 2.7715 6.59477 3.56853C5.79774 4.36556 5.34998 5.44656 5.34998 6.57373V9.57373C5.34998 9.98794 5.01419 10.3237 4.59998 10.3237H2.34998V12.8237H4.59998C5.01419 12.8237 5.34998 13.1595 5.34998 13.5737V20.8237H7.84998V13.5737C7.84998 13.1595 8.18576 12.8237 8.59998 12.8237H11.0144L11.6394 10.3237H8.59998C8.18576 10.3237 7.84998 9.98794 7.84998 9.57373V6.57373C7.84998 6.1096 8.03435 5.66448 8.36254 5.33629C8.69073 5.00811 9.13585 4.82373 9.59998 4.82373H11.85V2.32373H9.59998Z" fill="#73B6D2"/>
</svg>
