<svg width="20" height="17" viewBox="0 0 20 17" fill="none" xmlns="http://www.w3.org/2000/svg">
<path fill-rule="evenodd" clip-rule="evenodd" d="M3 2.57373C2.73478 2.57373 2.48043 2.67909 2.29289 2.86662C2.21971 2.93981 2.15904 3.02317 2.11226 3.11339L10 8.37188L17.8877 3.11339C17.841 3.02317 17.7803 2.93981 17.7071 2.86662C17.5196 2.67909 17.2652 2.57373 17 2.57373H3ZM18 5.44225L10.5547 10.4058C10.2188 10.6297 9.7812 10.6297 9.4453 10.4058L2 5.44225V13.5737C2 13.8389 2.10536 14.0933 2.29289 14.2808C2.48043 14.4684 2.73478 14.5737 3 14.5737H17C17.2652 14.5737 17.5196 14.4684 17.7071 14.2808C17.8946 14.0933 18 13.8389 18 13.5737V5.44225ZM0.87868 1.45241C1.44129 0.889801 2.20435 0.57373 3 0.57373H17C17.7957 0.57373 18.5587 0.889801 19.1213 1.45241C19.6839 2.01502 20 2.77808 20 3.57373V13.5737C20 14.3694 19.6839 15.1324 19.1213 15.6951C18.5587 16.2577 17.7957 16.5737 17 16.5737H3C2.20435 16.5737 1.44129 16.2577 0.87868 15.6951C0.31607 15.1324 0 14.3694 0 13.5737V3.57373C0 2.77808 0.31607 2.01502 0.87868 1.45241Z" fill="#E2E7E9"/>
</svg>
